# xmcd
#
# Track frame offsets:
#	150
#	12693
#	24675
#	35722
#	46640
#	59590
#	74811
#	87718
#	105318
#	116771
#	131985
#	141957
#	156872
#
# Disc length: 2323 seconds
#
# Revision: 0
# Processed by: cddbd v1.5.2PL0 Copyright (c) Steve Scherf et al.
# Submitted via: EasyCDDAExtractor 11.9.9.666
#
DISCID=c809110d
DTITLE=Banda Amil - Ela Tem Selo Lá
DYEAR=1900
DGENRE=Other
TTITLE0=Tô nessa também
TTITLE1=Ela tem selo lá
TTITLE2=Seu grande amor
TTITLE3=Grudadinha no meu pé
TTITLE4=Silêncio de um olhar
TTITLE5=O negócio do cabelo da mulhé
TTITLE6=Eu to Amil
TTITLE7=É paixão
TTITLE8=Eu tô facim
TTITLE9=Desejo de amar
TTITLE10=Lábios de mel
TTITLE11=Água e sabão
TTITLE12=Vivo pela estrada
EXTD=
EXTT0=
EXTT1=
EXTT2=
EXTT3=
EXTT4=
EXTT5=
EXTT6=
EXTT7=
EXTT8=
EXTT9=
EXTT10=
EXTT11=
EXTT12=
PLAYORDER=
